# xmcd CD database file
#
# Track frame offsets:
#	150
#	21700
#	40597
#	60790
#	78052
#	100470
#	119345
#	139695
#	159520
#	181900
#
# Disc length: 2713 seconds
#
# Revision: 0
# Processed by: cddbd v1.5.1PL0 Copyright (c) Steve Scherf et al.
# Submitted via: CDex 1.51
#
DISCID=760a970a
DTITLE=Juan Carlos Quintero - Los Primos
DYEAR=2003
DGENRE=Jazz
TTITLE0=Los Primos (The Cousins)
TTITLE1=Juntos (Together)
TTITLE2=El Ultimo Baile (The Last Dance)
TTITLE3=El Bambuquero (The Dancer of the Bambura Rhythm)
TTITLE4=Feria de las Flores (Fair of Flowers)
TTITLE5=Bosamba
TTITLE6=Jazz en Español
TTITLE7=Mi Tierra (My Homeland)
TTITLE8=Alma Libre (Free Spirit)
TTITLE9=Musica Para el Mundo (Music for the World)
EXTD=YEAR: 2003
EXTT0=
EXTT1=
EXTT2=
EXTT3=
EXTT4=
EXTT5=
EXTT6=
EXTT7=
EXTT8=
EXTT9=
PLAYORDER=
